<?xml version="1.0" encoding="UTF-8"?><svg width="428" height="369" viewBox="0 0 428 369" fill="none" xmlns="http://www.w3.org/2000/svg">
<circle cx="235" cy="186" r="152.5" stroke="#C4C4C4" stroke-dasharray="8 8"/>
<circle cx="361.526" cy="302.526" r="46.7543" transform="rotate(37.3094 361.526 302.526)" fill="#F6C043"/>
<path d="M140 0C63.1834 0 -2.54172e-08 63.1834 -5.63188e-08 140C46.6484 140 93.3516 140 140 140C140 93.3516 140 46.6484 140 0Z" fill="url(#better-ideas-2)"/>
<g filter="url(#better-ideas)">
<rect x="60" y="56" width="316" height="255.278" rx="22" fill="white"/>
</g>
<path d="M107.627 164.047V161.347C102.827 161.047 102.287 160.687 102.287 157.027V121.387H99.4666C96.1666 125.887 92.8066 128.467 86.6266 129.487L83.8066 129.967V132.547H89.2666V157.027C89.2666 160.687 89.0866 161.107 83.8066 161.347V164.047H107.627ZM136.999 132.487L138.859 119.407H136.339C135.319 121.627 134.899 121.927 132.859 121.927H115.699L111.799 147.007C124.879 147.007 130.039 150.127 130.039 155.827C130.039 159.787 127.999 162.007 124.699 162.007C120.619 162.007 118.939 158.767 118.939 154.567C118.939 153.127 119.239 151.867 119.479 150.967H112.279C110.419 151.927 109.039 153.967 109.039 156.307C109.039 161.227 114.199 164.647 123.919 164.647C132.919 164.647 140.179 160.027 140.179 150.727C140.179 140.107 132.079 135.487 116.299 136.027L116.959 132.487H136.999ZM154.966 128.587V139.747H143.806V144.067H154.966V155.227H159.226V144.067H170.446V139.747H159.226V128.587H154.966Z" fill="#0F0F0F"/>
<path d="M89.5306 215.838C88.3146 215.838 87.2266 215.55 86.2666 214.974C85.3066 214.398 84.5466 213.614 83.9866 212.622C83.4426 211.63 83.1706 210.502 83.1706 209.238C83.1706 207.974 83.4426 206.846 83.9866 205.854C84.5466 204.862 85.3066 204.078 86.2666 203.502C87.2266 202.926 88.3146 202.638 89.5306 202.638C90.6666 202.638 91.7066 202.846 92.6506 203.262C93.5946 203.678 94.3306 204.254 94.8586 204.99L92.9866 207.246C92.7626 206.942 92.4826 206.67 92.1466 206.43C91.8106 206.174 91.4426 205.974 91.0426 205.83C90.6586 205.686 90.2586 205.614 89.8426 205.614C89.1866 205.614 88.6026 205.774 88.0906 206.094C87.5946 206.398 87.2026 206.822 86.9146 207.366C86.6266 207.91 86.4826 208.534 86.4826 209.238C86.4826 209.91 86.6266 210.518 86.9146 211.062C87.2186 211.606 87.6266 212.038 88.1386 212.358C88.6506 212.678 89.2266 212.838 89.8666 212.838C90.2826 212.838 90.6746 212.782 91.0426 212.67C91.4106 212.558 91.7546 212.382 92.0746 212.142C92.4106 211.902 92.7146 211.614 92.9866 211.278L94.8346 213.534C94.3066 214.222 93.5546 214.782 92.5786 215.214C91.6186 215.63 90.6026 215.838 89.5306 215.838ZM102.922 215.838C101.626 215.838 100.466 215.558 99.4425 214.998C98.4345 214.422 97.6345 213.638 97.0425 212.646C96.4665 211.654 96.1785 210.518 96.1785 209.238C96.1785 207.958 96.4665 206.822 97.0425 205.83C97.6345 204.838 98.4345 204.062 99.4425 203.502C100.466 202.926 101.626 202.638 102.922 202.638C104.202 202.638 105.346 202.926 106.354 203.502C107.378 204.062 108.178 204.838 108.754 205.83C109.33 206.822 109.618 207.958 109.618 209.238C109.618 210.518 109.33 211.654 108.754 212.646C108.178 213.638 107.378 214.422 106.354 214.998C105.346 215.558 104.202 215.838 102.922 215.838ZM102.922 212.862C103.546 212.862 104.106 212.71 104.602 212.406C105.098 212.086 105.482 211.654 105.754 211.11C106.042 210.55 106.178 209.926 106.162 209.238C106.178 208.534 106.042 207.91 105.754 207.366C105.482 206.806 105.098 206.374 104.602 206.07C104.106 205.75 103.546 205.59 102.922 205.59C102.282 205.59 101.714 205.75 101.218 206.07C100.722 206.39 100.33 206.822 100.042 207.366C99.7545 207.91 99.6185 208.534 99.6345 209.238C99.6185 209.926 99.7545 210.55 100.042 211.11C100.33 211.654 100.722 212.086 101.218 212.406C101.714 212.71 102.282 212.862 102.922 212.862ZM116.574 215.838C115.646 215.838 114.846 215.638 114.174 215.238C113.518 214.822 113.006 214.238 112.638 213.486C112.286 212.718 112.11 211.798 112.11 210.726V202.902H115.518V210.174C115.518 210.75 115.614 211.254 115.806 211.686C115.998 212.102 116.27 212.422 116.622 212.646C116.974 212.87 117.406 212.982 117.918 212.982C118.286 212.982 118.622 212.926 118.926 212.814C119.246 212.686 119.518 212.51 119.742 212.286C119.982 212.062 120.166 211.798 120.294 211.494C120.422 211.19 120.486 210.862 120.486 210.51V202.902H123.894V215.598H120.654L120.534 212.982L121.158 212.694C120.966 213.286 120.646 213.822 120.198 214.302C119.75 214.782 119.214 215.158 118.59 215.43C117.966 215.702 117.294 215.838 116.574 215.838ZM127.323 215.598V202.902H130.587L130.683 205.494L130.011 205.782C130.187 205.206 130.499 204.686 130.947 204.222C131.411 203.742 131.963 203.358 132.603 203.07C133.243 202.782 133.915 202.638 134.619 202.638C135.579 202.638 136.379 202.83 137.019 203.214C137.675 203.598 138.163 204.182 138.483 204.966C138.819 205.734 138.987 206.686 138.987 207.822V215.598H135.579V208.086C135.579 207.51 135.499 207.03 135.339 206.646C135.179 206.262 134.931 205.982 134.595 205.806C134.275 205.63 133.875 205.55 133.395 205.566C133.011 205.566 132.651 205.63 132.315 205.758C131.995 205.87 131.715 206.038 131.475 206.262C131.251 206.486 131.067 206.742 130.923 207.03C130.795 207.318 130.731 207.63 130.731 207.966V215.598H129.051C128.683 215.598 128.355 215.598 128.067 215.598C127.779 215.598 127.531 215.598 127.323 215.598ZM143.477 215.598V199.686H146.885V215.598H143.477ZM141.101 205.95V202.902H149.501V205.95H141.101ZM151.698 215.598V202.902H154.986L155.106 206.982L154.53 206.142C154.722 205.486 155.034 204.894 155.466 204.366C155.898 203.822 156.402 203.398 156.978 203.094C157.57 202.79 158.186 202.638 158.826 202.638C159.098 202.638 159.362 202.662 159.618 202.71C159.874 202.758 160.09 202.814 160.266 202.878L159.354 206.622C159.178 206.526 158.946 206.446 158.658 206.382C158.386 206.302 158.106 206.262 157.818 206.262C157.434 206.262 157.074 206.334 156.738 206.478C156.418 206.606 156.138 206.798 155.898 207.054C155.658 207.294 155.466 207.582 155.322 207.918C155.194 208.254 155.13 208.622 155.13 209.022V215.598H151.698ZM162.51 215.598V202.902H165.918V215.598H162.51ZM164.19 200.31C163.534 200.31 163.022 200.15 162.654 199.83C162.286 199.494 162.102 199.03 162.102 198.438C162.102 197.894 162.286 197.454 162.654 197.118C163.038 196.766 163.55 196.59 164.19 196.59C164.846 196.59 165.358 196.758 165.726 197.094C166.094 197.414 166.278 197.862 166.278 198.438C166.278 198.982 166.086 199.43 165.702 199.782C165.334 200.134 164.83 200.31 164.19 200.31ZM175.582 215.838C174.206 215.838 172.998 215.558 171.958 214.998C170.934 214.438 170.134 213.67 169.558 212.694C168.998 211.718 168.718 210.598 168.718 209.334C168.718 208.342 168.878 207.438 169.198 206.622C169.518 205.806 169.966 205.102 170.542 204.51C171.118 203.902 171.798 203.438 172.582 203.118C173.382 202.782 174.246 202.614 175.174 202.614C176.038 202.614 176.838 202.774 177.574 203.094C178.31 203.414 178.942 203.862 179.47 204.438C180.014 204.998 180.43 205.67 180.718 206.454C181.006 207.222 181.134 208.054 181.102 208.95L181.078 210.006H170.878L170.326 207.918H178.27L177.886 208.35V207.822C177.854 207.39 177.71 207.006 177.454 206.67C177.214 206.318 176.902 206.046 176.518 205.854C176.134 205.646 175.702 205.542 175.222 205.542C174.518 205.542 173.918 205.678 173.422 205.95C172.942 206.222 172.574 206.622 172.318 207.15C172.062 207.678 171.934 208.318 171.934 209.07C171.934 209.838 172.094 210.502 172.414 211.062C172.75 211.622 173.214 212.062 173.806 212.382C174.414 212.686 175.126 212.838 175.942 212.838C176.502 212.838 177.014 212.75 177.478 212.574C177.942 212.398 178.438 212.094 178.966 211.662L180.598 213.942C180.134 214.358 179.622 214.71 179.062 214.998C178.502 215.27 177.926 215.478 177.334 215.622C176.742 215.766 176.158 215.838 175.582 215.838ZM187.892 215.838C186.708 215.838 185.652 215.646 184.724 215.262C183.812 214.862 183.076 214.318 182.516 213.63L184.652 211.806C185.132 212.334 185.676 212.718 186.284 212.958C186.892 213.182 187.5 213.294 188.108 213.294C188.348 213.294 188.564 213.27 188.756 213.222C188.964 213.158 189.14 213.078 189.284 212.982C189.428 212.87 189.532 212.742 189.596 212.598C189.676 212.438 189.716 212.27 189.716 212.094C189.716 211.742 189.572 211.47 189.284 211.278C189.124 211.182 188.876 211.078 188.54 210.966C188.204 210.838 187.772 210.702 187.244 210.558C186.428 210.35 185.732 210.11 185.156 209.838C184.596 209.55 184.148 209.23 183.812 208.878C183.524 208.542 183.3 208.182 183.14 207.798C182.996 207.398 182.924 206.958 182.924 206.478C182.924 205.902 183.052 205.382 183.308 204.918C183.564 204.438 183.916 204.03 184.364 203.694C184.828 203.358 185.356 203.102 185.948 202.926C186.54 202.734 187.164 202.638 187.82 202.638C188.476 202.638 189.116 202.718 189.74 202.878C190.364 203.038 190.94 203.27 191.468 203.574C192.012 203.862 192.484 204.206 192.884 204.606L191.06 206.622C190.772 206.35 190.444 206.102 190.076 205.878C189.724 205.654 189.356 205.478 188.972 205.35C188.588 205.222 188.244 205.158 187.94 205.158C187.668 205.158 187.42 205.182 187.196 205.23C186.988 205.278 186.812 205.358 186.668 205.47C186.524 205.566 186.412 205.686 186.332 205.83C186.268 205.974 186.236 206.134 186.236 206.31C186.236 206.486 186.276 206.654 186.356 206.814C186.452 206.974 186.58 207.11 186.74 207.222C186.916 207.318 187.172 207.43 187.508 207.558C187.86 207.686 188.332 207.83 188.924 207.99C189.692 208.198 190.34 208.43 190.868 208.686C191.412 208.942 191.844 209.238 192.164 209.574C192.436 209.862 192.636 210.19 192.764 210.558C192.892 210.926 192.956 211.334 192.956 211.782C192.956 212.566 192.732 213.262 192.284 213.87C191.852 214.478 191.252 214.958 190.484 215.31C189.716 215.662 188.852 215.838 187.892 215.838ZM202.745 215.598V202.902H206.033L206.153 206.982L205.577 206.142C205.769 205.486 206.081 204.894 206.513 204.366C206.945 203.822 207.449 203.398 208.025 203.094C208.617 202.79 209.233 202.638 209.873 202.638C210.145 202.638 210.409 202.662 210.665 202.71C210.921 202.758 211.137 202.814 211.313 202.878L210.401 206.622C210.225 206.526 209.993 206.446 209.705 206.382C209.433 206.302 209.153 206.262 208.865 206.262C208.481 206.262 208.121 206.334 207.785 206.478C207.465 206.606 207.185 206.798 206.945 207.054C206.705 207.294 206.513 207.582 206.369 207.918C206.241 208.254 206.177 208.622 206.177 209.022V215.598H202.745ZM218.753 215.838C217.377 215.838 216.169 215.558 215.129 214.998C214.105 214.438 213.305 213.67 212.729 212.694C212.169 211.718 211.889 210.598 211.889 209.334C211.889 208.342 212.049 207.438 212.369 206.622C212.689 205.806 213.137 205.102 213.713 204.51C214.289 203.902 214.969 203.438 215.753 203.118C216.553 202.782 217.417 202.614 218.345 202.614C219.209 202.614 220.009 202.774 220.745 203.094C221.481 203.414 222.113 203.862 222.641 204.438C223.185 204.998 223.601 205.67 223.889 206.454C224.177 207.222 224.305 208.054 224.273 208.95L224.249 210.006H214.049L213.497 207.918H221.441L221.057 208.35V207.822C221.025 207.39 220.881 207.006 220.625 206.67C220.385 206.318 220.073 206.046 219.689 205.854C219.305 205.646 218.873 205.542 218.393 205.542C217.689 205.542 217.089 205.678 216.593 205.95C216.113 206.222 215.745 206.622 215.489 207.15C215.233 207.678 215.105 208.318 215.105 209.07C215.105 209.838 215.265 210.502 215.585 211.062C215.921 211.622 216.385 212.062 216.977 212.382C217.585 212.686 218.297 212.838 219.113 212.838C219.673 212.838 220.185 212.75 220.649 212.574C221.113 212.398 221.609 212.094 222.137 211.662L223.769 213.942C223.305 214.358 222.793 214.71 222.233 214.998C221.673 215.27 221.097 215.478 220.505 215.622C219.913 215.766 219.329 215.838 218.753 215.838ZM226.792 220.878V202.902H230.08L230.176 205.758L229.552 205.542C229.664 205.03 229.936 204.558 230.368 204.126C230.816 203.694 231.368 203.342 232.024 203.07C232.68 202.798 233.368 202.662 234.088 202.662C235.192 202.662 236.176 202.95 237.04 203.526C237.904 204.086 238.584 204.862 239.08 205.854C239.576 206.83 239.824 207.958 239.824 209.238C239.824 210.502 239.576 211.63 239.08 212.622C238.584 213.614 237.904 214.398 237.04 214.974C236.176 215.534 235.192 215.814 234.088 215.814C233.352 215.814 232.648 215.678 231.976 215.406C231.32 215.118 230.76 214.742 230.296 214.278C229.848 213.814 229.56 213.318 229.432 212.79L230.224 212.454V220.878H226.792ZM233.32 212.886C233.944 212.886 234.496 212.734 234.976 212.43C235.456 212.126 235.832 211.702 236.104 211.158C236.376 210.598 236.512 209.958 236.512 209.238C236.512 208.518 236.376 207.886 236.104 207.342C235.832 206.798 235.456 206.374 234.976 206.07C234.512 205.766 233.96 205.614 233.32 205.614C232.68 205.614 232.12 205.766 231.64 206.07C231.16 206.358 230.784 206.782 230.512 207.342C230.24 207.886 230.104 208.518 230.104 209.238C230.104 209.958 230.24 210.598 230.512 211.158C230.784 211.702 231.16 212.126 231.64 212.43C232.12 212.734 232.68 212.886 233.32 212.886ZM242.401 220.878V202.902H245.689L245.785 205.758L245.161 205.542C245.273 205.03 245.545 204.558 245.977 204.126C246.425 203.694 246.977 203.342 247.633 203.07C248.289 202.798 248.977 202.662 249.697 202.662C250.801 202.662 251.785 202.95 252.649 203.526C253.513 204.086 254.193 204.862 254.689 205.854C255.185 206.83 255.433 207.958 255.433 209.238C255.433 210.502 255.185 211.63 254.689 212.622C254.193 213.614 253.513 214.398 252.649 214.974C251.785 215.534 250.801 215.814 249.697 215.814C248.961 215.814 248.257 215.678 247.585 215.406C246.929 215.118 246.369 214.742 245.905 214.278C245.457 213.814 245.169 213.318 245.041 212.79L245.833 212.454V220.878H242.401ZM248.929 212.886C249.553 212.886 250.105 212.734 250.585 212.43C251.065 212.126 251.441 211.702 251.713 211.158C251.985 210.598 252.121 209.958 252.121 209.238C252.121 208.518 251.985 207.886 251.713 207.342C251.441 206.798 251.065 206.374 250.585 206.07C250.121 205.766 249.569 205.614 248.929 205.614C248.289 205.614 247.729 205.766 247.249 206.07C246.769 206.358 246.393 206.782 246.121 207.342C245.849 207.886 245.713 208.518 245.713 209.238C245.713 209.958 245.849 210.598 246.121 211.158C246.393 211.702 246.769 212.126 247.249 212.43C247.729 212.734 248.289 212.886 248.929 212.886ZM264.035 215.838C262.659 215.838 261.451 215.558 260.411 214.998C259.387 214.438 258.587 213.67 258.011 212.694C257.451 211.718 257.171 210.598 257.171 209.334C257.171 208.342 257.331 207.438 257.651 206.622C257.971 205.806 258.419 205.102 258.995 204.51C259.571 203.902 260.251 203.438 261.035 203.118C261.835 202.782 262.699 202.614 263.627 202.614C264.491 202.614 265.291 202.774 266.027 203.094C266.763 203.414 267.395 203.862 267.923 204.438C268.467 204.998 268.883 205.67 269.171 206.454C269.459 207.222 269.587 208.054 269.555 208.95L269.531 210.006H259.331L258.779 207.918H266.723L266.339 208.35V207.822C266.307 207.39 266.163 207.006 265.907 206.67C265.667 206.318 265.355 206.046 264.971 205.854C264.587 205.646 264.155 205.542 263.675 205.542C262.971 205.542 262.371 205.678 261.875 205.95C261.395 206.222 261.027 206.622 260.771 207.15C260.515 207.678 260.387 208.318 260.387 209.07C260.387 209.838 260.547 210.502 260.867 211.062C261.203 211.622 261.667 212.062 262.259 212.382C262.867 212.686 263.579 212.838 264.395 212.838C264.955 212.838 265.467 212.75 265.931 212.574C266.395 212.398 266.891 212.094 267.419 211.662L269.051 213.942C268.587 214.358 268.075 214.71 267.515 214.998C266.955 215.27 266.379 215.478 265.787 215.622C265.195 215.766 264.611 215.838 264.035 215.838ZM277.041 215.838C275.921 215.838 274.921 215.558 274.041 214.998C273.177 214.422 272.489 213.646 271.977 212.67C271.481 211.678 271.233 210.534 271.233 209.238C271.233 207.974 271.481 206.846 271.977 205.854C272.489 204.846 273.177 204.062 274.041 203.502C274.921 202.926 275.921 202.638 277.041 202.638C277.633 202.638 278.201 202.734 278.745 202.926C279.305 203.102 279.801 203.35 280.233 203.67C280.681 203.99 281.041 204.35 281.313 204.75C281.585 205.134 281.737 205.534 281.769 205.95L280.905 206.118V197.838H284.337V215.598H281.097L280.953 212.67L281.625 212.742C281.593 213.142 281.449 213.526 281.193 213.894C280.937 214.262 280.593 214.598 280.161 214.902C279.745 215.19 279.265 215.422 278.721 215.598C278.193 215.758 277.633 215.838 277.041 215.838ZM277.809 213.006C278.449 213.006 279.009 212.846 279.489 212.526C279.969 212.206 280.345 211.766 280.617 211.206C280.889 210.646 281.025 209.99 281.025 209.238C281.025 208.502 280.889 207.854 280.617 207.294C280.345 206.734 279.969 206.294 279.489 205.974C279.009 205.654 278.449 205.494 277.809 205.494C277.169 205.494 276.609 205.654 276.129 205.974C275.665 206.294 275.297 206.734 275.025 207.294C274.769 207.854 274.641 208.502 274.641 209.238C274.641 209.99 274.769 210.646 275.025 211.206C275.297 211.766 275.665 212.206 276.129 212.526C276.609 212.846 277.169 213.006 277.809 213.006ZM302.315 215.838C301.755 215.838 301.211 215.758 300.683 215.598C300.155 215.438 299.675 215.222 299.243 214.95C298.811 214.662 298.451 214.342 298.163 213.99C297.875 213.622 297.691 213.246 297.611 212.862L298.379 212.574L298.211 215.55H294.995V197.838H298.427V205.878L297.755 205.614C297.851 205.23 298.035 204.862 298.307 204.51C298.579 204.142 298.923 203.822 299.339 203.55C299.755 203.262 300.211 203.038 300.707 202.878C301.203 202.718 301.715 202.638 302.243 202.638C303.347 202.638 304.331 202.926 305.195 203.502C306.075 204.062 306.763 204.838 307.259 205.83C307.755 206.822 308.003 207.958 308.003 209.238C308.003 210.518 307.755 211.654 307.259 212.646C306.779 213.638 306.107 214.422 305.243 214.998C304.379 215.558 303.403 215.838 302.315 215.838ZM301.499 212.934C302.139 212.934 302.691 212.782 303.155 212.478C303.635 212.158 304.011 211.726 304.283 211.182C304.555 210.622 304.691 209.974 304.691 209.238C304.691 208.518 304.555 207.878 304.283 207.318C304.027 206.758 303.659 206.326 303.179 206.022C302.699 205.718 302.139 205.566 301.499 205.566C300.859 205.566 300.299 205.718 299.819 206.022C299.339 206.326 298.963 206.758 298.691 207.318C298.435 207.878 298.307 208.518 298.307 209.238C298.307 209.974 298.435 210.622 298.691 211.182C298.963 211.726 299.339 212.158 299.819 212.478C300.299 212.782 300.859 212.934 301.499 212.934ZM311.888 221.118L314.672 214.59L314.72 216.558L308.528 202.902H312.392L315.488 210.222C315.616 210.494 315.736 210.814 315.848 211.182C315.976 211.534 316.08 211.87 316.16 212.19L315.584 212.454C315.696 212.182 315.808 211.87 315.92 211.518C316.048 211.166 316.176 210.79 316.304 210.39L318.968 202.902H322.856L317.528 215.598L315.344 221.118H311.888ZM84.4906 251.598V234.798H88.0906V251.598H84.4906ZM86.1466 244.926V241.83H94.8346V244.926H86.1466ZM86.1466 238.038V234.798H95.8426V238.038H86.1466ZM104.282 251.838C102.986 251.838 101.826 251.558 100.802 250.998C99.7938 250.422 98.9938 249.638 98.4018 248.646C97.8258 247.654 97.5378 246.518 97.5378 245.238C97.5378 243.958 97.8258 242.822 98.4018 241.83C98.9938 240.838 99.7938 240.062 100.802 239.502C101.826 238.926 102.986 238.638 104.282 238.638C105.562 238.638 106.706 238.926 107.714 239.502C108.738 240.062 109.538 240.838 110.114 241.83C110.69 242.822 110.978 243.958 110.978 245.238C110.978 246.518 110.69 247.654 110.114 248.646C109.538 249.638 108.738 250.422 107.714 250.998C106.706 251.558 105.562 251.838 104.282 251.838ZM104.282 248.862C104.906 248.862 105.466 248.71 105.962 248.406C106.458 248.086 106.842 247.654 107.114 247.11C107.402 246.55 107.538 245.926 107.522 245.238C107.538 244.534 107.402 243.91 107.114 243.366C106.842 242.806 106.458 242.374 105.962 242.07C105.466 241.75 104.906 241.59 104.282 241.59C103.642 241.59 103.074 241.75 102.578 242.07C102.082 242.39 101.69 242.822 101.402 243.366C101.114 243.91 100.978 244.534 100.994 245.238C100.978 245.926 101.114 246.55 101.402 247.11C101.69 247.654 102.082 248.086 102.578 248.406C103.074 248.71 103.642 248.862 104.282 248.862ZM113.565 251.598V238.902H116.853L116.973 242.982L116.397 242.142C116.589 241.486 116.901 240.894 117.333 240.366C117.765 239.822 118.269 239.398 118.845 239.094C119.437 238.79 120.053 238.638 120.693 238.638C120.965 238.638 121.229 238.662 121.485 238.71C121.741 238.758 121.957 238.814 122.133 238.878L121.221 242.622C121.045 242.526 120.813 242.446 120.525 242.382C120.253 242.302 119.973 242.262 119.685 242.262C119.301 242.262 118.941 242.334 118.605 242.478C118.285 242.606 118.005 242.798 117.765 243.054C117.525 243.294 117.333 243.582 117.189 243.918C117.061 244.254 116.997 244.622 116.997 245.022V251.598H113.565ZM129.574 251.838C128.198 251.838 126.99 251.558 125.95 250.998C124.926 250.438 124.126 249.67 123.55 248.694C122.99 247.718 122.71 246.598 122.71 245.334C122.71 244.342 122.87 243.438 123.19 242.622C123.51 241.806 123.958 241.102 124.534 240.51C125.11 239.902 125.79 239.438 126.574 239.118C127.374 238.782 128.238 238.614 129.166 238.614C130.03 238.614 130.83 238.774 131.566 239.094C132.302 239.414 132.934 239.862 133.462 240.438C134.006 240.998 134.422 241.67 134.71 242.454C134.998 243.222 135.126 244.054 135.094 244.95L135.07 246.006H124.87L124.318 243.918H132.262L131.878 244.35V243.822C131.846 243.39 131.702 243.006 131.446 242.67C131.206 242.318 130.894 242.046 130.51 241.854C130.126 241.646 129.694 241.542 129.214 241.542C128.51 241.542 127.91 241.678 127.414 241.95C126.934 242.222 126.566 242.622 126.31 243.15C126.054 243.678 125.926 244.318 125.926 245.07C125.926 245.838 126.086 246.502 126.406 247.062C126.742 247.622 127.206 248.062 127.798 248.382C128.406 248.686 129.118 248.838 129.934 248.838C130.494 248.838 131.006 248.75 131.47 248.574C131.934 248.398 132.43 248.094 132.958 247.662L134.59 249.942C134.126 250.358 133.614 250.71 133.054 250.998C132.494 251.27 131.918 251.478 131.326 251.622C130.734 251.766 130.15 251.838 129.574 251.838ZM138.836 251.598V235.686H142.244V251.598H138.836ZM136.46 241.95V238.902H144.86V241.95H136.46ZM147.058 251.598V233.838H150.418V241.494L149.746 241.782C149.922 241.206 150.234 240.686 150.682 240.222C151.146 239.742 151.698 239.358 152.338 239.07C152.978 238.782 153.65 238.638 154.354 238.638C155.314 238.638 156.114 238.83 156.754 239.214C157.41 239.598 157.898 240.182 158.218 240.966C158.554 241.734 158.722 242.686 158.722 243.822V251.598H155.314V244.086C155.314 243.51 155.234 243.03 155.074 242.646C154.914 242.262 154.666 241.982 154.33 241.806C154.01 241.63 153.61 241.55 153.13 241.566C152.746 241.566 152.386 241.63 152.05 241.758C151.73 241.87 151.45 242.038 151.21 242.262C150.986 242.486 150.802 242.742 150.658 243.03C150.53 243.318 150.466 243.63 150.466 243.966V251.598H148.786C148.418 251.598 148.09 251.598 147.802 251.598C147.514 251.598 147.266 251.598 147.058 251.598ZM167.891 251.838C166.595 251.838 165.435 251.558 164.411 250.998C163.403 250.422 162.603 249.638 162.011 248.646C161.435 247.654 161.147 246.518 161.147 245.238C161.147 243.958 161.435 242.822 162.011 241.83C162.603 240.838 163.403 240.062 164.411 239.502C165.435 238.926 166.595 238.638 167.891 238.638C169.171 238.638 170.315 238.926 171.323 239.502C172.347 240.062 173.147 240.838 173.723 241.83C174.299 242.822 174.587 243.958 174.587 245.238C174.587 246.518 174.299 247.654 173.723 248.646C173.147 249.638 172.347 250.422 171.323 250.998C170.315 251.558 169.171 251.838 167.891 251.838ZM167.891 248.862C168.515 248.862 169.075 248.71 169.571 248.406C170.067 248.086 170.451 247.654 170.723 247.11C171.011 246.55 171.147 245.926 171.131 245.238C171.147 244.534 171.011 243.91 170.723 243.366C170.451 242.806 170.067 242.374 169.571 242.07C169.075 241.75 168.515 241.59 167.891 241.59C167.251 241.59 166.683 241.75 166.187 242.07C165.691 242.39 165.299 242.822 165.011 243.366C164.723 243.91 164.587 244.534 164.603 245.238C164.587 245.926 164.723 246.55 165.011 247.11C165.299 247.654 165.691 248.086 166.187 248.406C166.683 248.71 167.251 248.862 167.891 248.862ZM181.543 251.838C180.615 251.838 179.815 251.638 179.143 251.238C178.487 250.822 177.975 250.238 177.607 249.486C177.255 248.718 177.079 247.798 177.079 246.726V238.902H180.487V246.174C180.487 246.75 180.583 247.254 180.775 247.686C180.967 248.102 181.239 248.422 181.591 248.646C181.943 248.87 182.375 248.982 182.887 248.982C183.255 248.982 183.591 248.926 183.895 248.814C184.215 248.686 184.487 248.51 184.711 248.286C184.951 248.062 185.135 247.798 185.263 247.494C185.391 247.19 185.455 246.862 185.455 246.51V238.902H188.863V251.598H185.623L185.503 248.982L186.127 248.694C185.935 249.286 185.615 249.822 185.167 250.302C184.719 250.782 184.183 251.158 183.559 251.43C182.935 251.702 182.263 251.838 181.543 251.838ZM197.842 257.118C196.834 257.118 195.842 256.966 194.866 256.662C193.89 256.374 193.09 255.99 192.466 255.51L193.69 253.086C194.01 253.31 194.378 253.51 194.794 253.686C195.21 253.862 195.642 253.998 196.09 254.094C196.554 254.19 197.026 254.238 197.506 254.238C198.338 254.238 199.018 254.11 199.546 253.854C200.09 253.598 200.498 253.214 200.77 252.702C201.042 252.19 201.178 251.55 201.178 250.782V248.574L201.754 248.694C201.658 249.222 201.386 249.71 200.938 250.158C200.506 250.59 199.962 250.942 199.306 251.214C198.666 251.47 197.994 251.598 197.29 251.598C196.122 251.598 195.082 251.326 194.17 250.782C193.258 250.238 192.538 249.486 192.01 248.526C191.482 247.566 191.218 246.454 191.218 245.19C191.218 243.926 191.474 242.806 191.986 241.83C192.514 240.838 193.226 240.062 194.122 239.502C195.034 238.926 196.066 238.638 197.218 238.638C197.698 238.638 198.154 238.694 198.586 238.806C199.034 238.918 199.442 239.078 199.81 239.286C200.194 239.478 200.53 239.702 200.818 239.958C201.122 240.198 201.37 240.462 201.562 240.75C201.754 241.038 201.874 241.326 201.922 241.614L201.226 241.806L201.322 238.902H204.586V250.638C204.586 251.678 204.434 252.598 204.13 253.398C203.826 254.198 203.378 254.87 202.786 255.414C202.21 255.974 201.498 256.398 200.65 256.686C199.818 256.974 198.882 257.118 197.842 257.118ZM197.938 248.862C198.61 248.862 199.194 248.71 199.69 248.406C200.202 248.102 200.594 247.678 200.866 247.134C201.138 246.59 201.274 245.95 201.274 245.214C201.274 244.494 201.138 243.862 200.866 243.318C200.594 242.758 200.202 242.326 199.69 242.022C199.194 241.718 198.61 241.566 197.938 241.566C197.282 241.566 196.706 241.726 196.21 242.046C195.714 242.35 195.322 242.782 195.034 243.342C194.762 243.886 194.626 244.51 194.626 245.214C194.626 245.934 194.762 246.574 195.034 247.134C195.322 247.678 195.714 248.102 196.21 248.406C196.706 248.71 197.282 248.862 197.938 248.862ZM207.972 251.598V233.838H211.332V241.494L210.66 241.782C210.836 241.206 211.148 240.686 211.596 240.222C212.06 239.742 212.612 239.358 213.252 239.07C213.892 238.782 214.564 238.638 215.268 238.638C216.228 238.638 217.028 238.83 217.668 239.214C218.324 239.598 218.812 240.182 219.132 240.966C219.468 241.734 219.636 242.686 219.636 243.822V251.598H216.228V244.086C216.228 243.51 216.148 243.03 215.988 242.646C215.828 242.262 215.58 241.982 215.244 241.806C214.924 241.63 214.524 241.55 214.044 241.566C213.66 241.566 213.3 241.63 212.964 241.758C212.644 241.87 212.364 242.038 212.124 242.262C211.9 242.486 211.716 242.742 211.572 243.03C211.444 243.318 211.38 243.63 211.38 243.966V251.598H209.7C209.332 251.598 209.004 251.598 208.716 251.598C208.428 251.598 208.18 251.598 207.972 251.598ZM224.125 251.598V235.686H227.533V251.598H224.125ZM221.749 241.95V238.902H230.149V241.95H221.749ZM243.978 251.838C242.794 251.838 241.738 251.646 240.81 251.262C239.898 250.862 239.162 250.318 238.602 249.63L240.738 247.806C241.218 248.334 241.762 248.718 242.37 248.958C242.978 249.182 243.586 249.294 244.194 249.294C244.434 249.294 244.65 249.27 244.842 249.222C245.05 249.158 245.226 249.078 245.37 248.982C245.514 248.87 245.618 248.742 245.682 248.598C245.762 248.438 245.802 248.27 245.802 248.094C245.802 247.742 245.658 247.47 245.37 247.278C245.21 247.182 244.962 247.078 244.626 246.966C244.29 246.838 243.858 246.702 243.33 246.558C242.514 246.35 241.818 246.11 241.242 245.838C240.682 245.55 240.234 245.23 239.898 244.878C239.61 244.542 239.386 244.182 239.226 243.798C239.082 243.398 239.01 242.958 239.01 242.478C239.01 241.902 239.138 241.382 239.394 240.918C239.65 240.438 240.002 240.03 240.45 239.694C240.914 239.358 241.442 239.102 242.034 238.926C242.626 238.734 243.25 238.638 243.906 238.638C244.562 238.638 245.202 238.718 245.826 238.878C246.45 239.038 247.026 239.27 247.554 239.574C248.098 239.862 248.57 240.206 248.97 240.606L247.146 242.622C246.858 242.35 246.53 242.102 246.162 241.878C245.81 241.654 245.442 241.478 245.058 241.35C244.674 241.222 244.33 241.158 244.026 241.158C243.754 241.158 243.506 241.182 243.282 241.23C243.074 241.278 242.898 241.358 242.754 241.47C242.61 241.566 242.498 241.686 242.418 241.83C242.354 241.974 242.322 242.134 242.322 242.31C242.322 242.486 242.362 242.654 242.442 242.814C242.538 242.974 242.666 243.11 242.826 243.222C243.002 243.318 243.258 243.43 243.594 243.558C243.946 243.686 244.418 243.83 245.01 243.99C245.778 244.198 246.426 244.43 246.954 244.686C247.498 244.942 247.93 245.238 248.25 245.574C248.522 245.862 248.722 246.19 248.85 246.558C248.978 246.926 249.042 247.334 249.042 247.782C249.042 248.566 248.818 249.262 248.37 249.87C247.938 250.478 247.338 250.958 246.57 251.31C245.802 251.662 244.938 251.838 243.978 251.838ZM252.696 251.598V235.686H256.104V251.598H252.696ZM250.32 241.95V238.902H258.72V241.95H250.32ZM265.552 251.838C264.496 251.838 263.544 251.55 262.696 250.974C261.848 250.398 261.176 249.614 260.68 248.622C260.184 247.63 259.936 246.494 259.936 245.214C259.936 243.934 260.184 242.798 260.68 241.806C261.192 240.814 261.88 240.038 262.744 239.478C263.608 238.918 264.592 238.638 265.696 238.638C266.32 238.638 266.888 238.734 267.4 238.926C267.928 239.102 268.384 239.35 268.768 239.67C269.168 239.99 269.504 240.358 269.776 240.774C270.048 241.19 270.24 241.638 270.352 242.118L269.632 241.998V238.902H273.016V251.598H269.584V248.55L270.352 248.478C270.224 248.926 270.016 249.35 269.728 249.75C269.44 250.15 269.08 250.51 268.648 250.83C268.232 251.134 267.76 251.382 267.232 251.574C266.704 251.75 266.144 251.838 265.552 251.838ZM266.488 248.886C267.128 248.886 267.688 248.734 268.168 248.43C268.648 248.126 269.016 247.702 269.272 247.158C269.544 246.598 269.68 245.95 269.68 245.214C269.68 244.494 269.544 243.862 269.272 243.318C269.016 242.774 268.648 242.35 268.168 242.046C267.688 241.726 267.128 241.566 266.488 241.566C265.864 241.566 265.312 241.726 264.832 242.046C264.368 242.35 264 242.774 263.728 243.318C263.456 243.862 263.32 244.494 263.32 245.214C263.32 245.95 263.456 246.598 263.728 247.158C264 247.702 264.368 248.126 264.832 248.43C265.312 248.734 265.864 248.886 266.488 248.886ZM277.417 251.598V238.014C277.417 237.23 277.593 236.518 277.945 235.878C278.297 235.238 278.777 234.734 279.385 234.366C280.009 233.998 280.737 233.814 281.569 233.814C282.129 233.814 282.657 233.91 283.153 234.102C283.649 234.278 284.073 234.518 284.425 234.822L283.417 237.342C283.209 237.214 282.993 237.11 282.769 237.03C282.561 236.934 282.369 236.886 282.193 236.886C281.889 236.886 281.633 236.942 281.425 237.054C281.233 237.15 281.089 237.302 280.993 237.51C280.897 237.702 280.849 237.95 280.849 238.254V251.598H279.145C278.777 251.598 278.449 251.598 278.161 251.598C277.873 251.598 277.625 251.598 277.417 251.598ZM275.521 242.094V239.214H283.585V242.094H275.521ZM286.838 251.598V238.014C286.838 237.23 287.014 236.518 287.366 235.878C287.718 235.238 288.198 234.734 288.806 234.366C289.43 233.998 290.158 233.814 290.99 233.814C291.55 233.814 292.078 233.91 292.574 234.102C293.07 234.278 293.494 234.518 293.846 234.822L292.838 237.342C292.63 237.214 292.414 237.11 292.19 237.03C291.982 236.934 291.79 236.886 291.614 236.886C291.31 236.886 291.054 236.942 290.846 237.054C290.654 237.15 290.51 237.302 290.414 237.51C290.318 237.702 290.27 237.95 290.27 238.254V251.598H288.566C288.198 251.598 287.87 251.598 287.582 251.598C287.294 251.598 287.046 251.598 286.838 251.598ZM284.942 242.094V239.214H293.006V242.094H284.942Z" fill="#0F0F0F"/>
<defs>
<filter id="better-ideas" x="50" y="50" width="336" height="275.277" filterUnits="userSpaceOnUse" color-interpolation-filters="sRGB">
<feFlood flood-opacity="0" result="BackgroundImageFix"/>
<feColorMatrix in="SourceAlpha" type="matrix" values="0 0 0 0 0 0 0 0 0 0 0 0 0 0 0 0 0 0 127 0" result="hardAlpha"/>
<feMorphology radius="2" operator="dilate" in="SourceAlpha" result="effect1_dropShadow_846:3620"/>
<feOffset dy="4"/>
<feGaussianBlur stdDeviation="4"/>
<feColorMatrix type="matrix" values="0 0 0 0 0 0 0 0 0 0 0 0 0 0 0 0 0 0 0.08 0"/>
<feBlend mode="normal" in2="BackgroundImageFix" result="effect1_dropShadow_846:3620"/>
<feBlend mode="normal" in="SourceGraphic" in2="effect1_dropShadow_846:3620" result="shape"/>
</filter>
<linearGradient id="better-ideas-2" x1="137.522" y1="67.7625" x2="1.00269" y2="68.1434" gradientUnits="userSpaceOnUse">
<stop stop-color="#F6C043"/>
<stop offset="1" stop-color="#FF9634"/>
</linearGradient>
</defs>
</svg>
