<?xml version="1.0" encoding="UTF-8"?><svg width="35" height="35" viewBox="0 0 35 35" fill="none" xmlns="http://www.w3.org/2000/svg">
<path d="M11.2926 6.43752H10.294V3.7662C10.2952 3.63718 10.2625 3.51012 10.1991 3.39776C10.1356 3.28539 10.0438 3.19167 9.93277 3.12598C9.82173 3.06029 9.69537 3.02494 9.56635 3.02348C9.43734 3.02203 9.31021 3.05451 9.19771 3.11767L2.90286 6.56105C2.7856 6.62398 2.6876 6.71752 2.61929 6.83172C2.55097 6.94592 2.51489 7.07651 2.51489 7.20958C2.51489 7.34265 2.55097 7.47324 2.61929 7.58744C2.6876 7.70164 2.7856 7.79518 2.90286 7.85811L9.19256 11.3221C9.30698 11.3858 9.43623 11.4181 9.56717 11.4156C9.69811 11.4131 9.82605 11.376 9.93798 11.308C10.0499 11.24 10.1418 11.1436 10.2044 11.0285C10.2669 10.9134 10.2978 10.7839 10.294 10.653V7.98164H11.3234C13.3348 7.99251 15.2603 8.79847 16.6797 10.2237C18.0991 11.6488 18.8972 13.5776 18.8999 15.589V31.6015H20.444V15.589C20.4413 13.1627 19.4763 10.8366 17.7606 9.12093C16.045 7.40529 13.7188 6.44025 11.2926 6.43752Z" fill="#7B33FB"/>
<path d="M15.6109 11.3242C14.9244 12.6374 14.571 14.0991 14.5815 15.5808V31.6036H16.1256V15.5963C16.1273 14.6245 16.3142 13.662 16.6764 12.7602C16.3928 12.2324 16.0339 11.7487 15.6109 11.3242Z" fill="#7B33FB"/>
<path d="M32.0971 6.56399L25.8074 3.1206C25.6948 3.05616 25.5671 3.02264 25.4373 3.02345C25.3076 3.02426 25.1803 3.05937 25.0685 3.12521C24.9567 3.19105 24.8642 3.2853 24.8006 3.39838C24.7369 3.51146 24.7043 3.63937 24.706 3.76913V6.44046H23.7074C21.9398 6.44182 20.2106 6.95682 18.7302 7.92281C19.1014 8.28845 19.4455 8.68067 19.7596 9.09634C20.945 8.37093 22.3074 7.98626 23.6971 7.98458H24.706V10.6559C24.7021 10.7868 24.7331 10.9164 24.7956 11.0314C24.8582 11.1465 24.9501 11.2429 25.062 11.3109C25.1739 11.3789 25.3019 11.416 25.4328 11.4185C25.5638 11.421 25.693 11.3887 25.8074 11.325L32.0971 7.87649C32.2183 7.81495 32.3201 7.72106 32.3912 7.60523C32.4623 7.4894 32.4999 7.35614 32.4999 7.22024C32.4999 7.08433 32.4623 6.95108 32.3912 6.83525C32.3201 6.71941 32.2183 6.62553 32.0971 6.56399Z" fill="#7B33FB"/>
</svg>
