<?xml version="1.0" encoding="UTF-8"?><svg width="35" height="35" viewBox="0 0 35 35" fill="none" xmlns="http://www.w3.org/2000/svg">
<path d="M18.1845 3.78139V31.2152C18.1845 31.3517 18.2387 31.4826 18.3352 31.5792C18.4318 31.6757 18.5627 31.7299 18.6992 31.7299C22.3827 31.5898 25.8686 30.0281 28.4251 27.3725C30.9816 24.7169 32.4098 21.1742 32.4098 17.488C32.4098 13.8019 30.9816 10.2591 28.4251 7.60351C25.8686 4.94795 22.3827 3.38617 18.6992 3.24609C18.6298 3.24604 18.5612 3.26 18.4974 3.28715C18.4335 3.31429 18.3758 3.35406 18.3278 3.40405C18.2797 3.45405 18.2422 3.51325 18.2176 3.57809C18.193 3.64293 18.1817 3.71208 18.1845 3.78139Z" fill="#7B33FB"/>
<path d="M6.06307 25.6307H5.96528C5.77789 25.6196 5.59517 25.5678 5.42984 25.4789C5.2645 25.39 5.12053 25.2661 5.00793 25.1159C3.64155 23.2098 2.81554 20.9699 2.6172 18.6331C2.41885 16.2962 2.85555 13.9491 3.88112 11.84C4.9067 9.73083 6.48305 7.93794 8.44356 6.65081C10.4041 5.36368 12.6759 4.63014 15.019 4.5277C15.1882 4.51369 15.3586 4.53429 15.5197 4.58827C15.6807 4.64225 15.8291 4.72847 15.9557 4.84168C16.0822 4.9628 16.1829 5.10819 16.2519 5.26915C16.3209 5.43011 16.3567 5.60332 16.3572 5.77844V15.0946C16.3578 15.4311 16.2266 15.7544 15.9918 15.9954L6.9844 25.2189C6.86726 25.347 6.72503 25.4497 6.56653 25.5205C6.40804 25.5914 6.23667 25.6288 6.06307 25.6307ZM14.8131 6.07182C12.8009 6.20941 10.8606 6.875 9.18769 8.0015C7.51478 9.128 6.16838 10.6756 5.28421 12.4883C4.40004 14.301 4.00934 16.3148 4.15151 18.3266C4.29367 20.3384 4.96366 22.2772 6.09396 23.9476L14.8131 14.9917V6.07182Z" fill="#7B33FB"/>
<path d="M15.0758 30.512H15.0192C12.6027 30.4095 10.2634 29.6321 8.26623 28.2679C8.11263 28.1632 7.98406 28.0259 7.88974 27.8657C7.79542 27.7055 7.73768 27.5265 7.72064 27.3414C7.70129 27.1539 7.72354 26.9644 7.78582 26.7865C7.8481 26.6085 7.94886 26.4465 8.08093 26.312L14.1442 20.0738C14.3237 19.8912 14.5534 19.766 14.8041 19.7142C15.0548 19.6624 15.3153 19.6863 15.5525 19.7828C15.7896 19.8793 15.9928 20.0441 16.1361 20.2563C16.2794 20.4685 16.3564 20.7185 16.3574 20.9745V29.2098C16.3583 29.3866 16.3232 29.5618 16.2541 29.7247C16.1851 29.8875 16.0837 30.0345 15.9559 30.1569C15.7206 30.3863 15.4044 30.5139 15.0758 30.512ZM9.41402 27.1664C11.0405 28.2106 12.9053 28.8251 14.8339 28.9524V21.6179L9.41402 27.1664Z" fill="#7B33FB"/>
</svg>
