<?xml version="1.0" encoding="utf-8"?>
<!-- Generator: Adobe Illustrator 27.0.1, SVG Export Plug-In . SVG Version: 6.00 Build 0)  -->
<svg version="1.1" id="main-chart" xmlns="http://www.w3.org/2000/svg" xmlns:xlink="http://www.w3.org/1999/xlink" x="0px" y="0px"
	 viewBox="0 0 306.6 306.6" style="enable-background:new 0 0 306.6 306.6;" xml:space="preserve">
<style type="text/css">
	.st0{fill:#7B33FB;stroke:#7B33FB;stroke-width:3;stroke-miterlimit:10;}
	.st1{fill:#FFFFFF;stroke:#7B33FB;stroke-width:3;stroke-miterlimit:10;}
</style>
<path class="st0" d="M64.7,277.5C29,252,6.7,214.2,1.9,171C-3,127,11,82.8,40.4,49.9l44.8,39.9c-18.1,20.3-26.7,47.5-23.6,74.6
	c2.9,26,16.4,48.9,38.1,64.3L64.7,277.5z"/>
<path class="st1" d="M152.7,305.8c-36,0-70.1-12.6-97.3-36.2c-12.5-10.9-13.8-29.8-3-42.3c10.9-12.5,29.8-13.8,42.3-3
	c18,15.6,41.2,23.2,65.5,21.2c25.4-2,48.5-14,65-33.7c10.6-12.7,29.6-14.4,42.3-3.7c12.7,10.6,14.4,29.6,3.7,42.3
	c-26.9,32.1-64.7,51.6-106.2,54.9C160.9,305.6,156.8,305.8,152.7,305.8z"/>
<path class="st0" d="M245.9,262.7c-7,0-14-2.4-19.7-7.3c-12.5-10.9-13.8-29.8-3-42.3c33.2-38.3,29.1-96.5-9.2-129.8
	c-12.5-10.9-13.8-29.8-3-42.3c10.9-12.5,29.8-13.8,42.3-3c63.3,55,70.1,151.2,15.2,214.4C262.6,259.2,254.3,262.7,245.9,262.7z"/>
<path class="st1" d="M62.7,100.1c-7.3,0-14.6-2.6-20.4-8c-12.1-11.3-12.9-30.2-1.6-42.4C68.3,19.9,106.1,2.6,147.1,0.9
	c41.2-1.7,80.2,12.6,110,40.2c12.2,11.3,12.9,30.2,1.6,42.4c-11.3,12.1-30.2,12.9-42.4,1.6c-18-16.7-41.6-25.3-66.7-24.2
	c-25.1,1-48.1,11.6-64.9,29.6C78.8,96.9,70.7,100.1,62.7,100.1z"/>
</svg>
