<?xml version="1.0" encoding="UTF-8"?><svg width="68" height="68" viewBox="0 0 68 68" fill="none" xmlns="http://www.w3.org/2000/svg">
<path d="M33.9997 5.92969C28.448 5.92969 23.0209 7.57596 18.4048 10.6603C13.7888 13.7447 10.191 18.1286 8.0664 23.2578C5.94185 28.3869 5.38597 34.0308 6.46906 39.4759C7.55214 44.9209 10.2256 49.9225 14.1512 53.8482C18.0769 57.7738 23.0785 60.4472 28.5235 61.5303C33.9686 62.6134 39.6125 62.0575 44.7416 59.933C49.8707 57.8084 54.2547 54.2106 57.3391 49.5945C60.4234 44.9785 62.0697 39.5514 62.0697 33.9997C62.0618 26.5575 59.1018 19.4224 53.8394 14.16C48.577 8.89755 41.4419 5.93763 33.9997 5.92969ZM33.9997 59.0697C28.221 59.0716 22.6201 57.0715 18.1497 53.4097L22.6597 53.4997C23.5216 53.5185 24.3643 53.2436 25.0493 52.7203C25.7344 52.1969 26.2212 51.4562 26.4297 50.6197L27.1797 47.6197C27.3195 47.0593 27.3298 46.4744 27.2097 45.9094C27.0895 45.3444 26.8422 44.8143 26.4865 44.3593C26.1307 43.9042 25.6759 43.5363 25.1567 43.2833C24.6374 43.0304 24.0673 42.8992 23.4897 42.8997H21.2797C20.6957 42.8924 20.1212 42.7505 19.601 42.4852C19.0807 42.2198 18.6285 41.8381 18.2797 41.3697L13.9997 35.7197C13.604 35.1946 13.3509 34.5761 13.265 33.9242C13.1792 33.2723 13.2635 32.6093 13.5097 31.9997L14.2497 30.1997C14.4777 29.6243 14.5618 29.002 14.4945 28.3868C14.4273 27.7715 14.2108 27.182 13.8638 26.6695C13.5169 26.157 13.05 25.737 12.5038 25.446C11.9576 25.155 11.3486 25.0018 10.7297 24.9997H10.6197C11.8849 21.6865 13.8406 18.6804 16.3569 16.181C18.8732 13.6817 21.8925 11.7464 25.2142 10.5036C28.5359 9.26077 32.084 8.73894 35.6229 8.97275C39.1618 9.20657 42.6104 10.1907 45.7397 11.8597L40.9997 17.0997C39.1857 19.093 37.8788 21.4941 37.1897 24.0997L36.4497 26.8697C36.3203 27.3391 36.3011 27.8321 36.3936 28.3102C36.4861 28.7883 36.6879 29.2385 36.9832 29.6257C37.2784 30.013 37.6592 30.3267 38.0957 30.5425C38.5322 30.7583 39.0127 30.8703 39.4997 30.8697H40.9997C41.5079 30.868 42.0082 30.7445 42.4589 30.5096C42.9095 30.2747 43.2973 29.9353 43.5897 29.5197L45.8797 26.2597C46.1176 25.8948 46.429 25.5836 46.7941 25.346C47.1591 25.1084 47.5698 24.9495 47.9997 24.8797C48.513 24.7959 49.0391 24.8396 49.5315 25.0071C50.0239 25.1746 50.4675 25.4607 50.8232 25.8402C51.1789 26.2196 51.4358 26.6807 51.5712 27.1829C51.7066 27.6851 51.7164 28.2128 51.5997 28.7197L50.5997 33.1397C50.4673 33.704 50.1798 34.2201 49.7697 34.6297L46.1397 38.3097C45.5791 38.8776 45.2541 39.6365 45.23 40.4342C45.2059 41.2318 45.4844 42.009 46.0097 42.6097L47.7897 44.6097C48.0856 44.9501 48.4513 45.2227 48.862 45.4091C49.2727 45.5954 49.7187 45.6911 50.1697 45.6897H56.2397C54.1047 49.7355 50.9041 53.1206 46.9842 55.4789C43.0643 57.8371 38.5743 59.0788 33.9997 59.0697Z" fill="#7B33FB"/>
</svg>
