<?xml version="1.0" encoding="UTF-8"?><svg width="234" height="80" viewBox="0 0 234 80" fill="none" xmlns="http://www.w3.org/2000/svg">
<g opacity="0.4">
<path d="M53.9129 51.7405C51.4617 54.4811 48.2248 56.4195 44.6325 57.2978C41.0402 58.1757 37.2626 57.9519 33.8021 56.6562C30.3414 55.3605 27.3617 53.0541 25.2589 50.0436C23.1561 47.0332 22.0298 43.4612 22.0298 39.8027C22.0298 36.1441 23.1561 32.5722 25.2589 29.5618C27.3617 26.5513 30.3414 24.2449 33.8021 22.9492C37.2626 21.6535 41.0402 21.4297 44.6325 22.3078C48.2248 23.1859 51.4617 25.1241 53.9129 27.8649L70.3148 11.6486H52.0486L40.2557 0L28.4627 11.6541H11.782V28.1405L0 39.8L11.782 51.4595V67.9459H28.4627L40.2557 79.6054L52.0486 67.9459H70.282L53.9129 51.7405ZM11.8148 48.3459L4.25902 40.9027H11.782L11.8148 48.3459ZM11.782 38.6811H4.25902L11.782 31.2595V38.6811ZM41.36 4.19459L48.8994 11.6541H41.371L41.36 4.19459ZM41.36 13.8378H64.9077L53.9129 24.7459C50.4529 21.6609 46.0241 19.8476 41.371 19.6108L41.36 13.8378ZM39.1185 4.21622V11.6541H31.6119L39.1185 4.21622ZM39.1185 13.8595V19.6108C34.4687 19.8569 30.0452 21.6734 26.5874 24.7568L15.6091 13.8595H39.1185ZM14.0181 15.4378L25.0347 26.3081C21.9245 29.7251 20.0899 34.0911 19.8353 38.6811H14.0181V15.4378ZM14.0181 40.9243H19.8353C20.0935 45.5071 21.928 49.865 25.0347 53.2757L14.0181 64.1892V40.9243ZM39.1677 75.4108L31.6119 67.9459H39.1185L39.1677 75.4108ZM39.1677 65.7676H15.6091L26.6257 54.8703C30.0765 57.9378 34.4848 59.7459 39.1185 59.9946L39.1677 65.7676ZM41.3983 75.4108V67.9459H48.9268L41.3983 75.4108ZM41.3983 65.7676V59.9946C46.0514 59.7578 50.4803 57.9443 53.9403 54.8595L64.9459 65.7459L41.3983 65.7676Z" fill="black"/>
<path d="M109.302 59.4108C107.727 63.5675 104.266 66.1675 99.1655 66.1675C92.7086 66.1675 88.291 61.5838 88.291 54.8162C88.291 48.0486 92.7687 43.4648 99.324 43.4648C104.485 43.4648 107.913 45.9405 109.367 50.4594H107.049C106.06 47.7135 103.616 45.2973 99.2912 45.2973C93.9442 45.2973 90.7021 49.1784 90.7021 54.8C90.7021 60.4216 93.9442 64.3351 99.324 64.3351C103.698 64.3351 105.841 61.827 106.978 59.4108H109.302Z" fill="black"/>
<path d="M111.697 57.7344C111.697 52.7236 114.945 49.2695 119.953 49.2695C124.961 49.2695 128.203 52.7236 128.203 57.7344C128.203 62.5993 125.048 66.1344 119.887 66.1344C114.726 66.1344 111.697 62.6209 111.697 57.7344ZM125.792 57.702C125.792 53.8209 123.605 51.0101 119.887 51.0101C116.17 51.0101 113.988 53.8209 113.988 57.702C113.988 61.702 116.087 64.3939 119.887 64.3939C123.687 64.3939 125.792 61.702 125.792 57.702Z" fill="black"/>
<path d="M141.728 56.4486C141.728 52.5675 140.061 51.0108 137.557 51.0108C134.741 51.0108 133.183 53.3027 133.183 55.9891V65.7189H130.969V52.1405C130.969 51.3189 130.969 50.5189 130.941 49.6972H133.156V52.081C133.69 51.1916 134.457 50.461 135.376 49.9664C136.294 49.4717 137.332 49.2312 138.377 49.2702C140.881 49.2702 142.581 50.3081 143.412 52.3567C143.995 51.3801 144.835 50.5776 145.841 50.0342C146.848 49.4909 147.985 49.2269 149.131 49.2702C152.871 49.2702 154.751 51.4324 154.751 55.7189V65.7351H152.532V56.4486C152.532 52.5675 150.859 51.0108 148.355 51.0108C145.545 51.0108 143.981 53.3027 143.981 55.9891V65.7189H141.756L141.728 56.4486Z" fill="black"/>
<path d="M169.602 56.4486C169.602 52.5676 167.929 51.0108 165.425 51.0108C162.615 51.0108 161.051 53.3027 161.051 55.9892V65.7189H158.826V52.1405C158.826 51.3189 158.826 50.5189 158.793 49.6973H161.018V52.0811C161.553 51.1924 162.32 50.4625 163.239 49.9679C164.157 49.4734 165.194 49.2324 166.239 49.2703C168.743 49.2703 170.444 50.3081 171.28 52.3567C171.862 51.3801 172.7 50.5776 173.706 50.0341C174.712 49.4907 175.848 49.2267 176.994 49.2703C180.733 49.2703 182.619 51.4324 182.619 55.7189V65.7351H180.394V56.4486C180.394 52.5676 178.727 51.0108 176.223 51.0108C173.413 51.0108 171.849 53.3027 171.849 55.9892V65.7189H169.624L169.602 56.4486Z" fill="black"/>
<path d="M185.352 57.7344C185.352 52.7236 188.594 49.2695 193.602 49.2695C198.61 49.2695 201.852 52.7236 201.852 57.7344C201.852 62.5993 198.697 66.1344 193.542 66.1344C188.386 66.1344 185.352 62.6209 185.352 57.7344ZM199.441 57.702C199.441 53.8209 197.254 51.0101 193.542 51.0101C189.829 51.0101 187.637 53.8209 187.637 57.702C187.637 61.702 189.736 64.3939 193.542 64.3939C197.347 64.3939 199.441 61.702 199.441 57.702Z" fill="black"/>
<path d="M204.597 52.1398C204.597 51.3182 204.597 50.5182 204.564 49.6966H206.79V52.0803C207.5 50.7993 209.135 49.2695 212.071 49.2695C215.811 49.2695 217.85 51.4317 217.85 55.7182V65.7344H215.625V56.4479C215.625 52.6317 213.837 51.0101 211.333 51.0101C208.517 51.0101 206.817 53.302 206.817 55.9885V65.7182H204.597V52.1398Z" fill="black"/>
<path d="M223.005 60.8818C223.59 62.9899 224.826 64.4548 227.576 64.4548C230.047 64.4548 231.534 63.2332 231.534 61.5251C231.534 59.817 230.113 59.3251 227.888 58.6818L225.969 58.1413C223.404 57.4062 221.491 56.5521 221.491 53.817C221.491 50.9737 223.929 49.2656 227.39 49.2656C230.698 49.2656 232.956 50.7305 233.448 53.9089H231.348C230.977 52.2278 229.801 50.9467 227.33 50.9467C224.859 50.9467 223.683 52.0278 223.683 53.4818C223.683 55.0386 224.777 55.5899 227.177 56.2927L229.216 56.9035C232.092 57.7899 233.694 58.7089 233.694 61.2278C233.694 64.3143 231.162 66.1467 227.516 66.1467C223.776 66.1467 221.502 64.4332 220.873 60.8927L223.005 60.8818Z" fill="black"/>
<path d="M90.7892 29.493C91.2868 32.6714 93.2932 34.3201 96.7212 34.3201C100.062 34.3201 102.101 32.6985 102.101 30.1039C102.101 27.4012 99.5642 26.5579 96.7868 25.5849L95.431 25.1363C91.8171 24.0066 89.3131 22.2336 89.3131 19.0228C89.3131 15.7255 92.0467 13.4336 96.6064 13.4336C101.084 13.4336 103.555 15.6336 104.02 19.5147H101.86C101.396 16.7039 99.6025 15.1904 96.5135 15.1904C93.4245 15.1904 91.6585 16.5633 91.6585 18.7633C91.6585 21.239 93.5174 22.066 96.5135 23.1309L98.2138 23.7417C101.675 24.9687 104.485 26.2822 104.485 29.7633C104.485 33.6768 101.27 36.1201 96.6666 36.1201C92.0631 36.1201 89.0889 33.9039 88.5039 29.493H90.7892Z" fill="black"/>
<path d="M106.912 27.7037C106.912 22.6929 110.138 19.2227 115.146 19.2227C120.154 19.2227 123.396 22.6767 123.396 27.6875C123.396 32.5524 120.247 36.0875 115.086 36.0875C109.925 36.0875 106.912 32.5902 106.912 27.7037ZM121.001 27.6713C121.001 23.7902 118.814 20.9794 115.102 20.9794C111.39 20.9794 109.197 23.7902 109.197 27.6713C109.181 31.6551 111.286 34.3578 115.113 34.3578C118.94 34.3578 120.985 31.6551 120.985 27.6713H121.001Z" fill="black"/>
<path d="M139.273 33.2749C139.273 34.1019 139.273 34.8965 139.306 35.7235H137.081V33.3235C136.555 34.2144 135.794 34.9468 134.878 35.4421C133.964 35.9373 132.929 36.1767 131.887 36.1343C128.18 36.1343 126.141 33.9343 126.141 29.6478V19.6641H128.366V28.9506C128.366 32.8046 130.061 34.3884 132.597 34.3884C135.38 34.3884 137.048 32.1019 137.048 29.41V19.6803H139.273V33.2749Z" fill="black"/>
<path d="M142.346 21.2864V19.6648H144.85V15.9134L147.075 15.3242V19.6485H150.169V21.2702H147.075V31.9783C147.075 33.5999 147.851 34.2702 149.366 34.2702C149.53 34.2728 149.695 34.2619 149.858 34.2377V35.9783C149.58 36.0137 149.301 36.0336 149.021 36.0377C146.43 36.0377 144.85 35.0918 144.85 32.0377V21.2864H142.346Z" fill="black"/>
<path d="M155.61 13.8594V18.8702C155.61 20.7351 155.583 21.3783 155.583 22.0486C156.293 20.7675 157.928 19.2378 160.864 19.2378C164.604 19.2378 166.643 21.3999 166.643 25.6864V35.708H164.418V26.4161C164.418 22.5999 162.624 20.9783 160.126 20.9783C157.31 20.9783 155.61 23.2702 155.61 25.9567V35.6864H153.385V14.4486L155.61 13.8594Z" fill="black"/>
<path d="M178.496 13.8594H184.51C186.364 13.8594 188.064 14.0432 189.392 14.7459C191.153 15.6323 192.328 17.281 192.328 20.0918C192.328 22.2918 191.525 23.9405 190.07 24.9567C188.709 26.0378 186.703 26.454 184.324 26.454H180.798V35.708H178.512L178.496 13.8594ZM180.781 24.5837H184.428C187.523 24.5837 189.895 23.3621 189.895 20.0918C189.895 17.1891 188.009 15.7242 184.27 15.7242H180.809L180.781 24.5837Z" fill="black"/>
<path d="M194.324 24.5248C194.324 21.3788 196.981 19.2383 200.786 19.2383C204.985 19.2383 207.025 21.2221 207.025 26.141C207.025 27.7626 206.997 28.2221 206.997 28.5896V32.3734C206.944 33.4937 207.046 34.6161 207.303 35.7085H205.237C205.04 34.8216 204.967 33.9124 205.018 33.0058C203.996 34.8383 202.142 36.0329 199.146 36.0329C195.931 36.0329 193.586 34.3518 193.586 31.4815C193.586 28.3302 196.522 27.2923 200.475 26.6491C201.432 26.4977 203.69 26.2221 204.892 26.0707C204.892 22.3734 203.629 20.968 200.693 20.968C197.757 20.968 196.675 22.4383 196.522 24.514L194.324 24.5248ZM204.958 27.7031C203.012 27.914 201.929 28.0707 200.786 28.2815C197.818 28.8599 195.964 29.3626 195.964 31.4275C195.964 33.3842 197.446 34.4545 199.791 34.4545C203.033 34.4545 204.92 32.4653 204.92 28.5896C204.914 28.2936 204.926 27.9975 204.958 27.7031Z" fill="black"/>
<path d="M213.175 22.1996C213.465 21.3564 214.014 20.6237 214.744 20.1034C215.475 19.5831 216.352 19.3012 217.253 19.2969C217.374 19.2969 217.499 19.3293 217.592 19.3293H217.745V21.4374C217.451 21.3726 217.15 21.3418 216.849 21.3455C214.378 21.3455 213.295 23.4212 213.295 26.632V35.7077H211.07V22.0807C211.07 21.3455 211.07 20.3996 211.037 19.6644H213.175V22.1996Z" fill="black"/>
<path d="M230.243 35.708C229.1 34.5134 227.274 32.4648 225.699 30.6648C224.77 29.654 223.813 28.5891 222.824 27.454V35.708H220.637V14.4432L222.824 13.8594V26.8323L225.557 24.0215C227.044 22.4648 228.772 20.7242 229.794 19.654H232.605L225.114 27.0594C226.011 28.0702 230.642 32.7729 233.239 35.708H230.243Z" fill="black"/>
</g>
</svg>
