<?xml version="1.0" encoding="UTF-8"?><svg width="68" height="68" viewBox="0 0 68 68" fill="none" xmlns="http://www.w3.org/2000/svg">
<path d="M54.1205 21.6415C53.4735 21.643 52.8278 21.6999 52.1905 21.8115V21.3415C52.174 17.9405 51.0023 14.6461 48.8675 11.9986C46.7327 9.35105 43.7615 7.50759 40.4413 6.77055C37.1212 6.03351 33.6491 6.44664 30.5946 7.94219C27.54 9.43774 25.0844 11.9269 23.6305 15.0015C21.6509 14.0311 19.475 13.5282 17.2705 13.5315C13.4271 13.534 9.74091 15.0572 7.0167 17.7683C4.29249 20.4794 2.7516 24.1582 2.73047 28.0015V38.4415C2.73047 38.8393 2.8885 39.2208 3.16981 39.5021C3.45111 39.7834 3.83264 39.9415 4.23047 39.9415H12.2905V58.5015C12.2931 59.3387 12.6269 60.141 13.2189 60.733C13.811 61.3251 14.6132 61.6588 15.4505 61.6615H31.5005C32.3368 61.6588 33.138 61.3247 33.7285 60.7324C34.3189 60.1401 34.6505 59.3378 34.6505 58.5015V39.9415H63.7705C64.1683 39.9415 64.5498 39.7834 64.8311 39.5021C65.1124 39.2208 65.2705 38.8393 65.2705 38.4415V32.8015C65.2678 29.8442 64.0926 27.0086 62.0024 24.9166C59.9122 22.8246 57.0777 21.6468 54.1205 21.6415ZM29.7405 55.8215H21.0005C20.6026 55.8215 20.2211 55.6634 19.9398 55.3821C19.6585 55.1008 19.5005 54.7193 19.5005 54.3215C19.5005 53.9236 19.6585 53.5421 19.9398 53.2608C20.2211 52.9795 20.6026 52.8215 21.0005 52.8215H29.7705C30.1683 52.8215 30.5498 52.9795 30.8311 53.2608C31.1124 53.5421 31.2705 53.9236 31.2705 54.3215C31.2705 54.7193 31.1124 55.1008 30.8311 55.3821C30.5498 55.6634 30.1683 55.8215 29.7705 55.8215H29.7405ZM29.7405 49.3515H21.0005C20.6026 49.3515 20.2211 49.1934 19.9398 48.9121C19.6585 48.6308 19.5005 48.2493 19.5005 47.8515C19.5005 47.4536 19.6585 47.0721 19.9398 46.7908C20.2211 46.5095 20.6026 46.3515 21.0005 46.3515H29.7705C30.1683 46.3515 30.5498 46.5095 30.8311 46.7908C31.1124 47.0721 31.2705 47.4536 31.2705 47.8515C31.2705 48.2493 31.1124 48.6308 30.8311 48.9121C30.5498 49.1934 30.1683 49.3515 29.7705 49.3515H29.7405ZM31.2405 41.3515C31.2405 41.7493 31.0824 42.1308 30.8011 42.4121C30.5198 42.6934 30.1383 42.8515 29.7405 42.8515H21.0005C20.6443 42.8462 20.3016 42.7142 20.0338 42.4793C19.7659 42.2444 19.5904 41.9219 19.5387 41.5694C19.487 41.217 19.5624 40.8576 19.7514 40.5557C19.9405 40.2537 20.2308 40.0289 20.5705 39.9215H30.2005C30.5062 40.0199 30.7723 40.214 30.9595 40.475C31.1467 40.736 31.2452 41.0503 31.2405 41.3715V41.3515ZM62.2405 36.9215H34.6505V30.8715C34.6505 30.036 34.3186 29.2348 33.7279 28.6441C33.1371 28.0533 32.3359 27.7215 31.5005 27.7215H15.5005C14.6641 27.7215 13.8619 28.053 13.2695 28.6435C12.6772 29.2339 12.3431 30.0351 12.3405 30.8715V36.9415H5.73047V28.0015C5.73021 25.9229 6.29137 23.8829 7.35464 22.0968C8.41792 20.3108 9.94385 18.8451 11.7712 17.8546C13.5986 16.8641 15.6596 16.3855 17.7365 16.4695C19.8133 16.5534 21.829 17.1967 23.5705 18.3315C23.7606 18.4599 23.9785 18.5413 24.2062 18.5691C24.4339 18.597 24.665 18.5703 24.8805 18.4915C25.097 18.4163 25.2934 18.2924 25.4546 18.1295C25.6159 17.9665 25.7376 17.7688 25.8105 17.5515C26.7128 14.8541 28.5439 12.565 30.9772 11.0923C33.4105 9.61964 36.2878 9.05912 39.0959 9.51073C41.9041 9.96234 44.4606 11.3967 46.3094 13.5581C48.1583 15.7194 49.1793 18.4672 49.1905 21.3115V23.7515C49.1949 23.9894 49.2556 24.223 49.3674 24.4331C49.4793 24.6432 49.6393 24.8238 49.8343 24.9603C50.0293 25.0968 50.2538 25.1853 50.4895 25.2185C50.7251 25.2517 50.9653 25.2287 51.1905 25.1515C52.1122 24.7945 53.092 24.6114 54.0805 24.6115C56.2421 24.6168 58.3135 25.4785 59.8411 27.0079C61.3686 28.5374 62.2278 30.6098 62.2305 32.7715L62.2405 36.9215Z" fill="#7B33FB"/>
</svg>
