<?xml version="1.0" encoding="UTF-8"?><svg width="35" height="35" viewBox="0 0 35 35" fill="none" xmlns="http://www.w3.org/2000/svg">
<path d="M17.0624 22.6062C15.5498 22.6076 14.0995 23.2087 13.0295 24.2778C11.9594 25.3469 11.357 26.7966 11.3543 28.3092V31.6548H22.7756V28.3092C22.7729 26.7957 22.1698 25.3452 21.0986 24.276C20.0275 23.2068 18.5758 22.6062 17.0624 22.6062ZM20.1815 17.9379C20.1876 17.3197 20.0099 16.7136 19.6709 16.1966C19.3319 15.6797 18.847 15.2751 18.2776 15.0342C17.7082 14.7934 17.0801 14.7272 16.473 14.8441C15.866 14.9609 15.3073 15.2555 14.868 15.6905C14.4287 16.1254 14.1285 16.6811 14.0057 17.287C13.8828 17.8929 13.9427 18.5216 14.1779 19.0934C14.413 19.6651 14.8127 20.1541 15.3263 20.4982C15.8399 20.8423 16.4442 21.0261 17.0624 21.0261C17.8843 21.0261 18.673 20.7018 19.2571 20.1235C19.8412 19.5452 20.1734 18.7597 20.1815 17.9379ZM19.7594 5.00845C19.5083 4.50915 19.1233 4.08947 18.6476 3.79621C18.1718 3.50295 17.6239 3.34766 17.065 3.34766C16.5061 3.34766 15.9581 3.50295 15.4824 3.79621C15.0066 4.08947 14.6216 4.50915 14.3705 5.00845L1.0293 31.6548H2.77415L15.755 5.69815C15.8773 5.4556 16.0645 5.25176 16.2958 5.10933C16.5271 4.9669 16.7933 4.89149 17.065 4.89149C17.3366 4.89149 17.6029 4.9669 17.8342 5.10933C18.0654 5.25176 18.2526 5.4556 18.3749 5.69815L31.3558 31.6548H33.08L19.7594 5.00845Z" fill="#7B33FB"/>
</svg>
