<?xml version="1.0" encoding="UTF-8"?><svg width="35" height="35" viewBox="0 0 35 35" fill="none" xmlns="http://www.w3.org/2000/svg">
<path d="M18.7044 18.5707H11.936C10.3307 18.5707 8.79107 17.933 7.65592 16.7979C6.52078 15.6627 5.88306 14.1231 5.88306 12.5178C5.88306 10.9124 6.52078 9.37286 7.65592 8.23771C8.79107 7.10256 10.3307 6.46484 11.936 6.46484H27.5933V8.52367H11.936C10.8767 8.52367 9.86077 8.94447 9.11173 9.69352C8.36269 10.4426 7.94188 11.4585 7.94188 12.5178C7.94188 13.5771 8.36269 14.593 9.11173 15.3421C9.86077 16.0911 10.8767 16.5119 11.936 16.5119H18.7044V18.5707Z" fill="#7B33FB"/>
<path d="M23.5788 28.6111H7.40674V26.5523H23.5788C24.115 26.5716 24.6497 26.4826 25.1507 26.2906C25.6518 26.0987 26.1091 25.8078 26.4953 25.4353C26.8814 25.0627 27.1886 24.6162 27.3984 24.1223C27.6082 23.6284 27.7163 23.0973 27.7163 22.5608C27.7163 22.0242 27.6082 21.4931 27.3984 20.9992C27.1886 20.5053 26.8814 20.0588 26.4953 19.6862C26.1091 19.3137 25.6518 19.0228 25.1507 18.8309C24.6497 18.6389 24.115 18.55 23.5788 18.5692H23.4913V16.5104H23.5788C24.3882 16.4868 25.1941 16.6258 25.9488 16.9192C26.7035 17.2127 27.3916 17.6546 27.9725 18.2187C28.5534 18.7829 29.0151 19.4579 29.3304 20.2037C29.6458 20.9495 29.8082 21.751 29.8082 22.5608C29.8082 23.3705 29.6458 24.172 29.3304 24.9178C29.0151 25.6636 28.5534 26.3386 27.9725 26.9028C27.3916 27.4669 26.7035 27.9088 25.9488 28.2023C25.1941 28.4957 24.3882 28.6347 23.5788 28.6111Z" fill="#7B33FB"/>
<path d="M11.5037 27.502C11.5037 25.2378 9.66824 23.4023 7.40408 23.4023C5.13991 23.4023 3.30444 25.2378 3.30444 27.502C3.30444 29.7661 5.13991 31.6016 7.40408 31.6016C9.66824 31.6016 11.5037 29.7661 11.5037 27.502Z" fill="#7B33FB"/>
<path d="M19.2294 13.4375H15.7345C14.4354 13.4375 13.3823 14.4906 13.3823 15.7897V19.2846C13.3823 20.5836 14.4354 21.6368 15.7345 21.6368H19.2294C20.5285 21.6368 21.5816 20.5836 21.5816 19.2846V15.7897C21.5816 14.4906 20.5285 13.4375 19.2294 13.4375Z" fill="#7B33FB"/>
<path d="M31.6905 7.49807C31.6905 5.23391 29.855 3.39844 27.5908 3.39844C25.3267 3.39844 23.4912 5.23391 23.4912 7.49807C23.4912 9.76223 25.3267 11.5977 27.5908 11.5977C29.855 11.5977 31.6905 9.76223 31.6905 7.49807Z" fill="#7B33FB"/>
</svg>
