<?xml version="1.0" encoding="UTF-8"?><svg width="68" height="68" viewBox="0 0 68 68" fill="none" xmlns="http://www.w3.org/2000/svg">
<path d="M55.1197 38.1094H28.5397C28.2212 38.1086 27.9127 37.9977 27.6666 37.7954C27.4205 37.593 27.2521 37.3118 27.1897 36.9994L23.3197 18.5194C23.278 18.318 23.2818 18.1097 23.3309 17.91C23.38 17.7102 23.4732 17.5239 23.6035 17.3648C23.7339 17.2057 23.8982 17.0777 24.0844 16.9903C24.2706 16.9028 24.474 16.8581 24.6797 16.8594H58.9997C59.2054 16.8581 59.4088 16.9028 59.595 16.9903C59.7812 17.0777 59.9456 17.2057 60.0759 17.3648C60.2063 17.5239 60.2994 17.7102 60.3485 17.91C60.3976 18.1097 60.4015 18.318 60.3597 18.5194L56.4797 36.9994C56.4153 37.3126 56.2449 37.5941 55.9971 37.7963C55.7494 37.9985 55.4395 38.1091 55.1197 38.1094Z" fill="#7B33FB"/>
<path d="M56.8809 46.3605H25.1409C23.9865 46.363 22.8668 45.966 21.9718 45.2369C21.0769 44.5078 20.4617 43.4915 20.2309 42.3605L13.5109 10.2305H9.13086C8.73303 10.2305 8.3515 10.0724 8.0702 9.79113C7.78889 9.50982 7.63086 9.12829 7.63086 8.73047C7.63086 8.33264 7.78889 7.95111 8.0702 7.66981C8.3515 7.3885 8.73303 7.23047 9.13086 7.23047H16.0009L23.2109 41.7605C23.3044 42.219 23.5557 42.6303 23.9211 42.9226C24.2866 43.215 24.743 43.3699 25.2109 43.3605H56.8809C57.2787 43.3605 57.6602 43.5185 57.9415 43.7998C58.2228 44.0811 58.3809 44.4626 58.3809 44.8605C58.3809 45.2583 58.2228 45.6398 57.9415 45.9211C57.6602 46.2024 57.2787 46.3605 56.8809 46.3605Z" fill="#7B33FB"/>
<path d="M27.0003 60.7702C25.778 60.7702 24.5832 60.4077 23.5669 59.7286C22.5506 59.0496 21.7585 58.0844 21.2907 56.9551C20.823 55.8259 20.7006 54.5833 20.9391 53.3845C21.1775 52.1857 21.7661 51.0845 22.6304 50.2202C23.4947 49.356 24.5959 48.7674 25.7947 48.5289C26.9935 48.2904 28.2361 48.4128 29.3653 48.8806C30.4945 49.3483 31.4597 50.1404 32.1388 51.1567C32.8179 52.173 33.1803 53.3679 33.1803 54.5902C33.1803 56.2292 32.5292 57.8011 31.3702 58.9601C30.2113 60.1191 28.6394 60.7702 27.0003 60.7702ZM27.0003 51.4102C26.3714 51.4102 25.7565 51.5967 25.2336 51.9461C24.7107 52.2955 24.3031 52.7922 24.0624 53.3732C23.8217 53.9543 23.7587 54.5937 23.8814 55.2105C24.0041 55.8274 24.307 56.394 24.7517 56.8388C25.1964 57.2835 25.7631 57.5864 26.3799 57.7091C26.9968 57.8318 27.6362 57.7688 28.2172 57.5281C28.7983 57.2874 29.295 56.8798 29.6444 56.3569C29.9938 55.8339 30.1803 55.2191 30.1803 54.5902C30.1803 54.1726 30.0981 53.759 29.9383 53.3732C29.7784 52.9874 29.5442 52.6368 29.2489 52.3416C28.9536 52.0463 28.6031 51.812 28.2172 51.6522C27.8314 51.4924 27.4179 51.4102 27.0003 51.4102Z" fill="#7B33FB"/>
<path d="M51.5706 60.7702C50.3483 60.7702 49.1535 60.4077 48.1372 59.7286C47.1209 59.0496 46.3288 58.0844 45.8611 56.9551C45.3933 55.8259 45.2709 54.5833 45.5094 53.3845C45.7478 52.1857 46.3364 51.0845 47.2007 50.2202C48.065 49.356 49.1662 48.7674 50.365 48.5289C51.5638 48.2904 52.8064 48.4128 53.9356 48.8806C55.0649 49.3483 56.03 50.1404 56.7091 51.1567C57.3882 52.173 57.7506 53.3679 57.7506 54.5902C57.7506 56.2292 57.0995 57.8011 55.9405 58.9601C54.7816 60.1191 53.2097 60.7702 51.5706 60.7702ZM51.5706 51.4102C50.9417 51.4102 50.3269 51.5967 49.8039 51.9461C49.281 52.2955 48.8734 52.7922 48.6327 53.3732C48.392 53.9543 48.329 54.5937 48.4517 55.2105C48.5744 55.8274 48.8773 56.394 49.322 56.8388C49.7668 57.2835 50.3334 57.5864 50.9502 57.7091C51.5671 57.8318 52.2065 57.7688 52.7876 57.5281C53.3686 57.2874 53.8653 56.8798 54.2147 56.3569C54.5641 55.8339 54.7506 55.2191 54.7506 54.5902C54.7506 54.1726 54.6684 53.759 54.5086 53.3732C54.3488 52.9874 54.1145 52.6368 53.8192 52.3416C53.5239 52.0463 53.1734 51.812 52.7876 51.6522C52.4017 51.4924 51.9882 51.4102 51.5706 51.4102Z" fill="#7B33FB"/>
</svg>
