<?xml version="1.0" encoding="UTF-8"?><svg width="68" height="68" viewBox="0 0 68 68" fill="none" xmlns="http://www.w3.org/2000/svg">
<path d="M56.9997 58.8114H10.9997C8.99281 58.8088 7.06889 58.0104 5.64981 56.5913C4.23073 55.1722 3.43233 53.2483 3.42969 51.2414V16.7614C3.43233 14.7545 4.23073 12.8306 5.64981 11.4115C7.06889 9.99245 8.99281 9.19405 10.9997 9.19141H56.9997C59.0066 9.19405 60.9305 9.99245 62.3496 11.4115C63.7686 12.8306 64.567 14.7545 64.5697 16.7614V51.2414C64.567 53.2483 63.7686 55.1722 62.3496 56.5913C60.9305 58.0104 59.0066 58.8088 56.9997 58.8114ZM10.9997 12.1914C9.78846 12.194 8.6276 12.6764 7.77113 13.5328C6.91466 14.3893 6.43233 15.5502 6.42969 16.7614V51.2414C6.43233 52.4526 6.91466 53.6135 7.77113 54.47C8.6276 55.3264 9.78846 55.8088 10.9997 55.8114H56.9997C58.2109 55.8088 59.3718 55.3264 60.2282 54.47C61.0847 53.6135 61.567 52.4526 61.5697 51.2414V16.7614C61.567 15.5502 61.0847 14.3893 60.2282 13.5328C59.3718 12.6764 58.2109 12.194 56.9997 12.1914H10.9997Z" fill="#7B33FB"/>
<path d="M17.3691 49.34C16.9713 49.34 16.5898 49.182 16.3085 48.9007C16.0272 48.6194 15.8691 48.2378 15.8691 47.84V39C15.8691 38.6022 16.0272 38.2206 16.3085 37.9393C16.5898 37.658 16.9713 37.5 17.3691 37.5C17.767 37.5 18.1485 37.658 18.4298 37.9393C18.7111 38.2206 18.8691 38.6022 18.8691 39V47.84C18.8691 48.2378 18.7111 48.6194 18.4298 48.9007C18.1485 49.182 17.767 49.34 17.3691 49.34Z" fill="#7B33FB"/>
<path d="M34.5391 49.34C34.1412 49.34 33.7597 49.182 33.4784 48.9007C33.1971 48.6194 33.0391 48.2378 33.0391 47.84V34C33.0391 33.6022 33.1971 33.2206 33.4784 32.9393C33.7597 32.658 34.1412 32.5 34.5391 32.5C34.9369 32.5 35.3184 32.658 35.5997 32.9393C35.881 33.2206 36.0391 33.6022 36.0391 34V47.84C36.0391 48.2378 35.881 48.6194 35.5997 48.9007C35.3184 49.182 34.9369 49.34 34.5391 49.34Z" fill="#7B33FB"/>
<path d="M26 49.3389C25.6022 49.3389 25.2206 49.1809 24.9393 48.8996C24.658 48.6183 24.5 48.2367 24.5 47.8389V29.6289C24.5 29.2311 24.658 28.8496 24.9393 28.5682C25.2206 28.2869 25.6022 28.1289 26 28.1289C26.3978 28.1289 26.7794 28.2869 27.0607 28.5682C27.342 28.8496 27.5 29.2311 27.5 29.6289V47.8389C27.4974 48.2359 27.3385 48.6159 27.0578 48.8967C26.777 49.1774 26.397 49.3363 26 49.3389Z" fill="#7B33FB"/>
<path d="M52.5192 22.3281H45.4692C44.3536 22.3281 43.4492 23.2325 43.4492 24.3481V47.3481C43.4492 48.4637 44.3536 49.3681 45.4692 49.3681H52.5192C53.6348 49.3681 54.5392 48.4637 54.5392 47.3481V24.3481C54.5392 23.2325 53.6348 22.3281 52.5192 22.3281Z" fill="#7B33FB"/>
</svg>
